<?xml version="1.0" encoding="UTF-8"?><svg id="Livello_2" xmlns="http://www.w3.org/2000/svg" viewBox="0 0 651.15 140.3"><g id="Livello_2-2"><path d="m0,136.89V3.06h45.12v98.84h60.41v34.99H0Z"/><path d="m347.57,139.95c-10.83,0-20.81-1.69-29.92-5.07-9.11-3.38-17.02-8.19-23.71-14.43-6.69-6.24-11.89-13.64-15.58-22.18-3.7-8.54-5.54-17.97-5.54-28.29s1.85-19.75,5.54-28.29c3.7-8.54,8.92-15.93,15.68-22.18,6.75-6.24,14.75-11.06,23.99-14.43,9.24-3.38,19.41-5.07,30.49-5.07,13.25,0,25.07,2.23,35.46,6.69,10.39,4.46,18.96,10.83,25.71,19.12l-28.87,25.43c-4.21-4.84-8.76-8.51-13.67-10.99-4.91-2.49-10.36-3.73-16.35-3.73-4.97,0-9.46.76-13.48,2.29-4.01,1.53-7.43,3.76-10.23,6.69-2.8,2.93-4.97,6.44-6.5,10.52-1.53,4.08-2.29,8.73-2.29,13.96s.76,9.53,2.29,13.67c1.53,4.14,3.7,7.68,6.5,10.61,2.8,2.93,6.15,5.19,10.04,6.79,3.89,1.6,8.25,2.39,13.1,2.39,5.1,0,10.07-.86,14.91-2.58,4.84-1.72,10-4.68,15.49-8.89l25.24,30.97c-8.16,5.48-17.46,9.69-27.91,12.62-10.45,2.93-20.59,4.4-30.4,4.4Zm19.12-22.75v-50.85h39.19v56.59l-39.19-5.74Z"/><path d="m256.09,41.96c-3.76-8.47-9.02-15.87-15.77-22.18-6.76-6.31-14.72-11.18-23.9-14.63C207.24,1.72,197.17,0,186.21,0s-20.87,1.72-30.11,5.16c-9.24,3.44-17.24,8.32-23.99,14.63-6.76,6.31-12.01,13.7-15.77,22.18-3.76,8.48-5.64,17.81-5.64,28.01s1.88,19.38,5.64,27.91c3.76,8.54,9.01,15.96,15.77,22.27,6.75,6.31,14.75,11.18,23.99,14.63,9.24,3.44,19.28,5.16,30.11,5.16s21.03-1.72,30.21-5.16,17.14-8.32,23.9-14.63c6.75-6.31,12.01-13.73,15.77-22.27,3.76-8.54,5.64-17.84,5.64-27.91s-1.88-19.53-5.64-28.01Zm-60.52,43.45v22.26c0,4.4-3.6,8-8,8s-8-3.6-8-8v-22.26c-10.44-3.37-18-13.17-18-24.74,0-14.36,11.64-26,26-26s26,11.64,26,26c0,11.57-7.56,21.37-18,24.74Z"/><path d="m460.67,140.3V3.72h13.08v136.58h-13.08Z"/><path d="m595.68,2.67c11.16,0,20.89,2.14,29.17,6.41,8.28,4.28,14.74,10.73,19.36,19.36,4.62,8.63,6.93,19.32,6.93,32.05v79.8h-13.08V61.54c0-15.35-3.88-27.03-11.64-35.06-7.76-8.02-18.62-12.04-32.58-12.04-10.64,0-19.89,2.18-27.73,6.54-7.85,4.36-13.83,10.46-17.92,18.32-4.1,7.85-6.15,17.27-6.15,28.26v72.74h-13.08V3.72h12.56v37.94l-1.83-4.19c4.19-10.81,11.08-19.32,20.67-25.51,9.59-6.19,21.37-9.29,35.32-9.29Z"/></g></svg>